<mxfile host="Electron" modified="2023-05-25T01:44:16.824Z" agent="Mozilla/5.0 (Windows NT 10.0; Win64; x64) AppleWebKit/537.36 (KHTML, like Gecko) draw.io/21.2.8 Chrome/112.0.5615.165 Electron/24.2.0 Safari/537.36" etag="KtYJuTLGftNANCeSBLb9" version="21.2.8" type="device">
  <diagram name="Page-1" id="_V2xkG9DoEGubKkoHcjc">
    <mxGraphModel dx="792" dy="845" grid="1" gridSize="10" guides="1" tooltips="1" connect="1" arrows="1" fold="1" page="1" pageScale="1" pageWidth="850" pageHeight="1100" math="0" shadow="0">
      <root>
        <mxCell id="0" />
        <mxCell id="1" parent="0" />
        <mxCell id="kLlCJvIpepnr8F3p0MXL-1" value="Local computer" style="sketch=0;outlineConnect=0;fontColor=#232F3E;gradientColor=none;fillColor=#232F3D;strokeColor=none;dashed=0;verticalLabelPosition=top;verticalAlign=bottom;align=center;html=1;fontSize=12;fontStyle=0;aspect=fixed;pointerEvents=1;shape=mxgraph.aws4.client;labelPosition=center;spacingBottom=10;" vertex="1" parent="1">
          <mxGeometry x="280" y="175.5" width="78" height="76" as="geometry" />
        </mxCell>
        <mxCell id="kLlCJvIpepnr8F3p0MXL-2" value="Git Server" style="verticalLabelPosition=top;html=1;verticalAlign=bottom;align=center;strokeColor=none;fillColor=#00BEF2;shape=mxgraph.azure.git_repository;labelPosition=center;spacingBottom=10;" vertex="1" parent="1">
          <mxGeometry x="740" y="164.5" width="87" height="87" as="geometry" />
        </mxCell>
        <mxCell id="kLlCJvIpepnr8F3p0MXL-4" value="AWS CodeCommit" style="sketch=0;points=[[0,0,0],[0.25,0,0],[0.5,0,0],[0.75,0,0],[1,0,0],[0,1,0],[0.25,1,0],[0.5,1,0],[0.75,1,0],[1,1,0],[0,0.25,0],[0,0.5,0],[0,0.75,0],[1,0.25,0],[1,0.5,0],[1,0.75,0]];outlineConnect=0;fontColor=#232F3E;gradientColor=#4D72F3;gradientDirection=north;fillColor=#3334B9;strokeColor=#ffffff;dashed=0;verticalLabelPosition=top;verticalAlign=bottom;align=center;html=1;fontSize=12;fontStyle=0;aspect=fixed;shape=mxgraph.aws4.resourceIcon;resIcon=mxgraph.aws4.codecommit;labelPosition=center;spacingBottom=10;" vertex="1" parent="1">
          <mxGeometry x="510" y="173.5" width="78" height="78" as="geometry" />
        </mxCell>
        <mxCell id="kLlCJvIpepnr8F3p0MXL-5" value="" style="endArrow=none;html=1;rounded=0;strokeWidth=3;" edge="1" parent="1">
          <mxGeometry width="50" height="50" relative="1" as="geometry">
            <mxPoint x="319.5" y="255" as="sourcePoint" />
            <mxPoint x="319.5" y="545" as="targetPoint" />
          </mxGeometry>
        </mxCell>
        <mxCell id="kLlCJvIpepnr8F3p0MXL-6" value="" style="endArrow=none;html=1;rounded=0;strokeWidth=3;" edge="1" parent="1">
          <mxGeometry width="50" height="50" relative="1" as="geometry">
            <mxPoint x="548.5" y="255" as="sourcePoint" />
            <mxPoint x="548.5" y="545" as="targetPoint" />
          </mxGeometry>
        </mxCell>
        <mxCell id="kLlCJvIpepnr8F3p0MXL-7" value="" style="endArrow=none;html=1;rounded=0;strokeWidth=3;" edge="1" parent="1">
          <mxGeometry width="50" height="50" relative="1" as="geometry">
            <mxPoint x="783" y="255" as="sourcePoint" />
            <mxPoint x="783" y="545" as="targetPoint" />
          </mxGeometry>
        </mxCell>
        <mxCell id="kLlCJvIpepnr8F3p0MXL-8" value="" style="endArrow=classic;html=1;rounded=0;" edge="1" parent="1">
          <mxGeometry width="50" height="50" relative="1" as="geometry">
            <mxPoint x="325" y="300" as="sourcePoint" />
            <mxPoint x="545" y="300" as="targetPoint" />
          </mxGeometry>
        </mxCell>
        <mxCell id="kLlCJvIpepnr8F3p0MXL-9" value="AWS Console: Create repository" style="text;html=1;align=center;verticalAlign=middle;resizable=0;points=[];autosize=1;strokeColor=none;fillColor=none;" vertex="1" parent="1">
          <mxGeometry x="329" y="270" width="200" height="30" as="geometry" />
        </mxCell>
        <mxCell id="kLlCJvIpepnr8F3p0MXL-11" value="" style="endArrow=classic;html=1;rounded=0;" edge="1" parent="1">
          <mxGeometry width="50" height="50" relative="1" as="geometry">
            <mxPoint x="324" y="480" as="sourcePoint" />
            <mxPoint x="544" y="480" as="targetPoint" />
          </mxGeometry>
        </mxCell>
        <mxCell id="kLlCJvIpepnr8F3p0MXL-12" value="Git Client: Push project to new repository" style="text;html=1;align=center;verticalAlign=middle;resizable=0;points=[];autosize=1;strokeColor=none;fillColor=none;" vertex="1" parent="1">
          <mxGeometry x="313" y="450" width="240" height="30" as="geometry" />
        </mxCell>
        <mxCell id="kLlCJvIpepnr8F3p0MXL-13" value="" style="edgeStyle=none;orthogonalLoop=1;jettySize=auto;html=1;endArrow=classic;startArrow=classic;endSize=8;startSize=8;rounded=0;" edge="1" parent="1">
          <mxGeometry width="100" relative="1" as="geometry">
            <mxPoint x="325" y="370" as="sourcePoint" />
            <mxPoint x="780" y="370" as="targetPoint" />
            <Array as="points" />
          </mxGeometry>
        </mxCell>
        <mxCell id="kLlCJvIpepnr8F3p0MXL-14" value="Git Client: Clone Project" style="text;html=1;align=center;verticalAlign=middle;resizable=0;points=[];autosize=1;strokeColor=none;fillColor=none;" vertex="1" parent="1">
          <mxGeometry x="483" y="340" width="150" height="30" as="geometry" />
        </mxCell>
        <mxCell id="kLlCJvIpepnr8F3p0MXL-15" value="1" style="ellipse;whiteSpace=wrap;html=1;aspect=fixed;strokeWidth=2;fontFamily=Tahoma;spacingBottom=4;spacingRight=2;strokeColor=#d3d3d3;" vertex="1" parent="1">
          <mxGeometry x="419" y="250" width="20" height="20" as="geometry" />
        </mxCell>
        <mxCell id="kLlCJvIpepnr8F3p0MXL-16" value="2" style="ellipse;whiteSpace=wrap;html=1;aspect=fixed;strokeWidth=2;fontFamily=Tahoma;spacingBottom=4;spacingRight=2;strokeColor=#d3d3d3;" vertex="1" parent="1">
          <mxGeometry x="560" y="320" width="20" height="20" as="geometry" />
        </mxCell>
        <mxCell id="kLlCJvIpepnr8F3p0MXL-17" value="3" style="ellipse;whiteSpace=wrap;html=1;aspect=fixed;strokeWidth=2;fontFamily=Tahoma;spacingBottom=4;spacingRight=2;strokeColor=#d3d3d3;" vertex="1" parent="1">
          <mxGeometry x="419" y="430" width="20" height="20" as="geometry" />
        </mxCell>
      </root>
    </mxGraphModel>
  </diagram>
</mxfile>
